<?xml version="1.0" encoding="utf-8"?>
<!-- Generator: Adobe Illustrator 27.5.0, SVG Export Plug-In . SVG Version: 6.00 Build 0)  -->
<svg version="1.1" xmlns="http://www.w3.org/2000/svg" xmlns:xlink="http://www.w3.org/1999/xlink" x="0px" y="0px"
	 viewBox="0 0 500 500" style="enable-background:new 0 0 500 500;" xml:space="preserve">
<g id="BACKGROUND">
	<rect style="fill:#FEECD3;" width="500" height="500"/>
</g>
<g id="OBJECTS">
	
		<ellipse transform="matrix(0.7071 -0.7071 0.7071 0.7071 -12.5632 212.3106)" style="fill:#FFFFFF;" cx="250" cy="121.32" rx="87.095" ry="87.095"/>
	<path style="fill:#FFFFFF;" d="M0,195.783c0,0,68.842,92.672,251.889,92.672S500,204.773,500,204.773V500H0"/>
	<path style="fill:#EBCEA6;" d="M0,474.283c0,0,119.695-30.413,262.387-30.413S500,474.283,500,474.283V500H0V474.283z"/>
	<path style="fill:#383838;" d="M404.313,439.577l-35.387-18.356l-7.817-22.756l-30.066,23.511l28.51-28.042l3.609-4.449
		l-2.731-102.018l-15.968-109.962l-24.652-37.073c1.442-3.191,1.632-6.93,0.519-10.25c-1.114-3.321-3.52-6.189-6.594-7.865
		c-1.507-0.821-3.252-1.439-4.202-2.87c-0.741-1.116-0.847-2.522-1.253-3.801c-0.57-1.806-1.784-3.4-3.372-4.434
		c-4.687-3.049-11.394-1.015-16.065-4.088c-2.118-1.394-3.474-3.003-4.37-4.878c-1.113-2.335-1.634-5.062-3.487-6.867
		c-2.362-2.3-6.026-2.334-9.266-2.942c-3.998-0.75-7.783-2.598-10.834-5.287c-4.026-3.551-6.661-8.395-10.225-12.41
		c-5.098-5.746-12.06-9.685-19.463-11.733c-7.403-2.047-15.336-2.862-22.854-1.291c-10.389,2.17-18.449,9.837-23.933,18.276
		c-5.483,8.44-8.354,18.374-9.538,28.368c-0.411,3.469-0.618,7.053,0.402,10.394c1.02,3.341,3.49,6.424,6.869,7.305
		c1.211,3.275,3.997,5.179,6.14,7.502c1.726,1.872,3.065,4.066,4.713,6.007c1.137,1.337,2.418,2.55,3.526,3.913
		c1.574,1.938,2.779,4.16,3.657,6.497c0.387,1.032,0.717,2.097,1.282,3.044c0.565,0.948,1.41,1.786,2.477,2.065
		c0.578,0.151,1.191,0.13,1.779,0.023c1.319-0.242,2.553-0.925,3.457-1.913c0.078,1.028,0.605,1.884,1.315,2.507
		c0.71,0.624,1.595,1.025,2.508,1.266c0.82,0.216,1.725,0.3,2.492-0.064c0.136,0.875,0.794,1.445,1.526,1.512
		c0.085,0.007,0.17,0.009,0.255,0.011c0.244,0.005,0.489,0.01,0.734,0.015c-0.387,0.67,0.238,1.627,0.97,2.193
		c0.732,0.567,1.625,0.977,2.133,1.75c0.699,1.063,0.457,2.454,0.523,3.723c0.119,2.241,1.306,4.341,2.955,5.861
		c1.65,1.521,3.733,2.506,5.879,3.163c5.374,1.644,11.337,1.287,16.476-0.989c-0.469,0.045-11.192,34.84-14.61,45.967l28.799,15.972
		l-29.837-12.589c-4.943-1.615-8.544-5.786-11.883-9.773c2.267-5.012,2.676-10.854,2.221-16.509
		c-0.128-1.596-0.325-3.199-0.813-4.725c-0.649-2.027-1.794-3.861-2.545-5.853c-0.461-1.223-0.771-2.499-1.249-3.714
		c-1.469-3.736-4.526-6.952-4.765-10.958c-0.046-0.776-0.011-1.642-0.528-2.223c-0.449-0.505-1.224-0.632-1.87-0.432
		c-0.645,0.199-1.175,0.672-1.59,1.206c-1.661,2.131-1.666,5.128-1.082,7.766c-3.952-2.989-6.782-7.05-9.315-11.214
		c-2.533-4.165-4.819-8.489-7.657-12.453c-0.957-1.335-2.173-2.738-3.811-2.854c-0.917-0.065-1.856,0.328-2.455,1.026
		c-0.598,0.698-0.842,1.686-0.637,2.582c-1.274-0.408-2.522-0.154-3.265,0.605c-0.625,0.637-0.902,1.554-0.918,2.447
		c-0.015,0.892,0.208,1.77,0.469,2.623c-0.997-0.184-1.75,0.164-2.192,0.728c-0.442,0.564-0.607,1.306-0.596,2.022
		c0.012,0.717,0.185,1.42,0.357,2.114c0.312,1.263,0.624,2.526,0.938,3.789c-1.199-0.28-2.23,0.575-2.658,1.604
		c-0.428,1.029-0.377,2.189-0.255,3.296c0.42,3.806,1.594,7.49,2.152,11.278c0.449,3.042,0.499,6.132,0.962,9.172
		c0.663,4.354,2.162,8.531,3.652,12.676c0.765,2.128,1.536,4.269,2.64,6.243c3.706,6.628,10.984,11.103,13.241,18.354
		c-0.084,0.498-12.174,71.869-12.174,71.869l5.266,1.658l28.916-10.941l0.883,7.951l-5.124,10.013l1.06,9.01l4.081,4.953
		l-1.747,3.012l-7.952,4.88l-15.422,0.902l-20.182,12.592l2.389,4.595l13.118,21.926l-17.186-21.33l-22.047,3.229l0.559,6.248
		l-4.476-1.213l-17.721,11.751l-1.119,4.198l-38.518,30.124l5.689,28.82l9.236,4.455l21.801,9.37l-19.668-4.577l7.864,17.677
		h309.565L404.313,439.577z"/>
</g>
</svg>
